<?xml version="1.0" encoding="UTF-8"?>
<svg width="210" height="124.2" version="1.1" viewBox="0 0 55.56 32.86" xmlns="http://www.w3.org/2000/svg" xmlns:cc="http://creativecommons.org/ns#" xmlns:dc="http://purl.org/dc/elements/1.1/" xmlns:rdf="http://www.w3.org/1999/02/22-rdf-syntax-ns#">
<title>Recording Industry Association of Japan logo</title>
 <metadata>
  <rdf:RDF>
   <cc:Work rdf:about="">
    <dc:format>image/svg+xml</dc:format>
    <dc:type rdf:resource="http://purl.org/dc/dcmitype/StillImage"/>
    <dc:title/>
   </cc:Work>
  </rdf:RDF>
 </metadata>
 <g transform="translate(-60.93 -41.43)">
  <path d="m62.25 42.75h5.537v3.305h-5.537z"/>
  <path d="m79.43 54.5s2.537-1.143 2.537-3.848c0-2.708-2.604-4.407-4.542-4.407h-4.229v3.445h-5.39v10.78h5.377v-4.893h1.304l2.902 4.893h6.179zm-4.888-2.475h-1.234v-2.315s0.6362-0.01558 1.107-0.01558c0.4681 0 2.056-0.01295 2.056 1.138 0 1.151-1.49 1.192-1.929 1.192"/>
  <path d="m89.59 60.47h-5.444v-14.19h5.444z"/>
  <path d="m100.2 57.09v3.378h-10.18l5.889-14.06h6.334l5.576 14.06h-5.093l-3.673-9.864-2.48 6.487z"/>
  <path d="m115.1 51.25 0.0336 0.03363c-0.1345 0.9906-0.1345 1.898-0.3492 2.889l-0.0517 0.03104 0.0517 0.03363c-0.4164 1.966-0.8819 3.784-1.663 5.568-0.1009 0.2612-0.2483 0.5017-0.331 0.7785-0.1009 0.0182 0.0156 0.04913-0.0517 0.06469-0.2974 0.6673-0.6466 1.301-1.029 1.916-0.0673 0.01802-0.1319-0.01558-0.1319-0.0957l0.0336-0.03363c-0.0672-0.06469 0.0647-0.194-0.018-0.2767-0.1319 0.06725-0.3155 0.1629-0.3 0.3414 0 0.1966 0.2845 0.2121 0.2328 0.3724-0.1991 0.3259-0.3155 0.5535-0.5302 0.7966 0.0983-0.194 0.0983-0.4707 0.2147-0.6802 0.018-0.08018-0.0336-0.1293-0.0983-0.1629-0.1991 0.04655-0.15 0.2767-0.3 0.3724 0 0.1474-0.0983 0.2586-0.1991 0.3905 0 0.08018 0 0.2095-0.0983 0.2276-0.2509 0.2276-0.3673 0.5354-0.6647 0.763 0.0802 0.09829 0.2172 0 0.3129 0.04655l0.1009 0.01802c-0.031 0.0647-0.0828 0.1448-0.1474 0.1785-0.2017 0.3569-0.5845 0.5199-0.7009 0.9078-0.2483 0.2457-0.463 0.4707-0.6802 0.7319-0.0156 0.1604-0.2147 0.2276-0.3 0.3724 0 0.1293-0.1164 0.1629-0.181 0.2276-0.1345 0.1448-0.3828 0.3233-0.4681 0.5354-0.1293 0.06469-0.1655 0.2431-0.331 0.2767l-0.2483 0.3569c-0.0854 0.181-0.3492 0.2742-0.3492 0.5354-0.0491 0.1319-0.2328 0.2121-0.3647 0.2586l0.0156 0.01821c-0.0983 0-0.0828 0.1293-0.1655 0.1448-0.1345 0.1966-0.2819 0.375-0.4345 0.5198-0.2302 0.1474-0.3802 0.4061-0.5948 0.5845-0.2173 0.1319-0.4836 0.3078-0.5147 0.5509-0.0672 0.06725-0.0672 0.1293-0.119 0.181l-0.0156-0.01558c-0.0336 0.08018-0.1164 0.1448-0.1992 0.1604 0.0156 0.03104-0.0182 0.03104-0.0336 0.04914h-0.0491c-0.0182 0.08018-0.15 0.1138-0.1992 0.1784-0.1164 0.0647-0.1992 0.2431-0.3 0.2923-0.0517-0.01558-0.0673 0.08277-0.1164 0.01558-0.1009 0.1655-0.3 0.1655-0.3336 0.375-0.0646-0.01802-0.0491 0.1448-0.1474 0.1112-0.0517 0.06725-0.1345 0.1319-0.2173 0.1966-0.0828-0.03363-0.0336 0.08018-0.0983 0.08018-0.2172 0.1293-0.4009 0.3259-0.6311 0.4242v-0.0182c0 0.03363-0.0698 0.1164-0.1009 0.06469v0.03363c-0.0491-0.09829 0.0828-0.1138 0.1009-0.1966l0.0491 0.01802c-0.0182-0.06469 0.0646-0.04914 0.0983-0.06469h-0.0156c0.1319-0.08018 0.2638-0.1474 0.313-0.2923 0.0854 0.01558 0.0517-0.08277 0.1371-0.04914 0.0156-0.1293 0.181-0.1138 0.2638-0.1966 0.0182 0.0182 0.0491 0.04913 0.0673 0l-0.0673-0.01558c0.0336-0.04654 0.1009-0.01558 0.0828-0.08018 0.0854 0.01558 0.1319-0.1138 0.1164-0.2095 0-0.03363-0.0672-0.08277-0.0156-0.1319l-0.0336-0.01558c0.0828-0.06469 0.2819 0.08277 0.3492-0.06469 0.0828 0 0.0983-0.1629 0.0983-0.2121-0.031-0.08018-0.0983-0.2095-0.1655-0.2923-0.0156-0.03106 0-0.1293 0.0672-0.1138 0.0595-0.01295 0.0647 0.05171 0.0517 0.08534 0.0336 0.06469 0.0828 0.1138 0.1138 0.1733-0.0336 0.1164 0.1164 0.04914 0.1655 0.08277 0.0828 0 0.0828-0.1293 0.1681-0.08277 0-0.06205 0.0336-0.1138 0.0828-0.1759l0.013 0.01558c0.0207-0.01558 0.0207-0.09829 0.0853-0.04914l-0.0156-0.04914c0.1164-0.01558 0.1655-0.1138 0.2819-0.1448 0.1164-0.1138 0.1992-0.2923 0.1345-0.4707-0.018-0.01558-0.0673-0.03363-0.0517-0.0647-0.0336-0.01802-0.15-0.06725-0.2173 0-0.1138 0.0647-0.1319 0.2742-0.2793 0.2431-0.0182 0.1138-0.119 0.01558-0.1345 0.1474-0.0156 0.01558-0.0983 0.01558-0.0673 0.06205h-0.0983c0-0.06205 0.031-0.1138 0.0673-0.1629l0.0156 0.03363c0-0.06469 0.0828-0.08018 0.1164-0.08018-0.018-0.01802 0-0.03363 0-0.03363 0-0.01558 0.0156-0.01558 0.0336-0.01558 0.0156 0.03104 0.0336 0 0.0491 0-0.0336-0.04654 0.0182-0.06462 0.0336-0.09827 0.1009 0.05171 0.0156-0.1785 0.15-0.0957-0.0336-0.1319 0.1319-0.09827 0.1319-0.1966 0.1164-0.08018 0.2172-0.1759 0.2845-0.2897 0.1138-0.06725 0.1655-0.181 0.2664-0.2767 0.013-0.2612 0.2147-0.2457 0.3647-0.3905v0.01802c0.0491-0.03622 0.062-0.1319 0.0828-0.1966-0.0673-0.0182 0-0.1319-0.1009-0.1319 0.0182-0.08018-0.1164-0.04655-0.15-0.08018-0.15 0.06725-0.2483 0.2276-0.2638 0.3724-0.1836 0.06469-0.3672 0.181-0.45 0.3595-0.075-0.01558-0.0543 0.02331-0.088-0.02847 0.0103-0.0026 0.0207-0.02066 0.0207-0.02066l-0.0491-0.06725 0.0336-0.03104c-0.0182 0 0-0.01558 0-0.01558 0.0156-0.04914 0.031 0 0.0673 0-0.0362-0.08277 0.0647-0.09829 0.1319-0.1604l0.0156 0.01295c0.018-0.03106 0.0336-0.0957 0.1009-0.08018 0.0336-0.2121 0.1991-0.388 0.1319-0.5845 0 0 0.0336-0.03363 0.0672-0.01558v0.06469c0.0517-0.01558 0.0983 0.04913 0.1319 0.08018 0.0853 0 0.1345-0.06469 0.1681-0.1293 0.0647-0.1293-0.2328-0.194-0.0698-0.2923 0.2354-0.08018 0.3181-0.2923 0.4526-0.4707 0.0983-0.01558 0.0156-0.04914 0.0828-0.1138 0.163-0.1784 0.3983-0.2742 0.4966-0.5199 0.1836-0.1448 0.2664-0.3724 0.4655-0.5017 0.0673-0.06725 0.0673-0.1784 0.018-0.2431-0.1009-0.01802-0.0336-0.1138-0.1345-0.1009-0.2483 0.1009-0.3828 0.344-0.5819 0.5199-0.0828 0.1655-0.2328 0.2793-0.331 0.4242-0.0156-0.06725-0.0673-0.08277-0.0156-0.1448 0.0491 0 0.0491-0.1474 0.0983-0.181l0.0517 0.01802c0.0647-0.2431 0.1655-0.4552 0.4293-0.5535 0.1009-0.04655 0.1345-0.1759 0.1345-0.2586-0.0336-0.04913-0.018-0.1319-0.1009-0.1629-0.1836-0.06469-0.2483 0.194-0.4138 0.1138-0.0673-0.01558-0.0336-0.06462-0.1345-0.08277-0.075 0.01032-0.1293 0.0543-0.1707 0.1086l-0.0285-0.04138c0.0491-0.03363 0.0672-0.1293 0.1164-0.194 0.3647-0.4888 0.6311-1.138 0.9647-1.658v-0.03106h0.0156c0.0673-0.1474 0.119-0.2793 0.1655-0.4242l0.0673-0.03104-0.0336-0.01558c0.8638-1.707 1.397-3.59 1.896-5.457 0.1319-0.6492 0.2974-1.394 0.4319-2.077l0.0647-0.4552c0.0491-0.4061 0.15-0.9414 0.1836-1.366 0.0491-0.01295 0.0156-0.06203 0-0.06203l0.0491-0.3569c-0.0491-0.01802 0.0336-0.06469 0-0.09829 0.018 0 0.0336 0 0.0336-0.01558-0.0828-0.0647 0.0336-0.2612 0-0.3595l0.0336-0.2742h-0.0156c0.0156-0.1784 0.031-0.4216 0.0156-0.6181l0.0336-0.01558c-0.0336-0.03104 0-0.06462 0-0.08018 0.0156-0.1629-0.0336-0.2767 0.0156-0.4552-0.0491-0.08277 0.018-0.2276 0-0.3259 0-1.622 0.0336-3.424 0.0517-5.261l0.0336-0.01295 5.483 0.01295 0.031 0.03363c-0.0156 1.64 0.0362 3.117-0.0646 4.741m-6.448 11.19c0.0491-0.01558 0.0491-0.0647 0.0672-0.0957-0.0182-0.05171-0.0672-0.05171-0.119-0.05171-0.0311 0.05171-0.0156 0.1319 0.0517 0.1474m-0.3492 0.7966c0.0854 0.09829 0.1655-0.01558 0.2173-0.06462-0.0336-0.1448 0.0802-0.3414-0.0517-0.4888-0.0491-0.0957-0.0983-0.2095-0.2147-0.194-0.1836 0.2121-0.0673 0.538 0.0491 0.7474m-0.5819 0.09829c0.0491 0.0957 0.1345 0.194 0.2172 0.194l0.0156-0.09829c-0.0673-0.04913-0.15-0.194-0.2328-0.0957m0.0336 0.5199c0.0156 0.03104 0.0156 0.04654 0.0491 0.04654 0.0336 0 0.0517-0.03363 0.0517-0.08018-0.0336-0.01802-0.1164-0.01802-0.1009 0.03363m-0.3492 0.1112c0.0182 0.06469 0.0491 0.1319 0.1319 0.1785 0.0828 0 0.0517-0.0957 0.0673-0.1448-0.0491-0.06725-0.0828-0.1448-0.181-0.1319zm-0.5147 0.3388c0.0336 0.1009 0.0983 0.1319 0.1836 0.1474 0.15 0.03363 0.181-0.1138 0.181-0.225-0.0156-0.09829-0.1345-0.2276-0.2328-0.1785-0.0465 0.0957-0.1655 0.1448-0.1319 0.256m0.0853 1.009c0.0983-0.03104 0.0802-0.1629 0.0983-0.2431-0.0983-0.1784 0.0802-0.4397-0.2172-0.4707-0.0673 0.03104-0.1655 0.04914-0.1655 0.1319-0.0517 0.225 0.0983 0.4681 0.2845 0.5819m1.293-1.071c-0.0336-0.01558-0.0491-0.06462-0.0336-0.08277-0.0828-0.0957-0.1992-0.03104-0.2638 0.05171-0.0854 0.225-0.4164 0.3724-0.2509 0.6466 0.0336 0.08277 0.1164 0.1474 0.1992 0.1474 0.1992-0.2121 0.4319-0.4888 0.3492-0.763m0.3828-0.375c-0.0156-0.0957-0.1009-0.1784-0.1992-0.194-0.1345 0.03104-0.2172 0.181-0.2509 0.2923 0.0517 0.1319 0.0673 0.2767 0.2017 0.3259 0.1164-0.1138 0.2483-0.2431 0.2483-0.4242m0.2147-0.2923c0.0336-0.08018 0.1009-0.1759 0.0336-0.2612-0.0491-0.03104-0.0828-0.04654-0.1474-0.04654-0.0673-0.01558-0.0854 0.04654-0.1164 0.09827-0.0182 0.04913-0.0182 0.1448 0.0311 0.194 0.0517 0.04913 0.15 0.04913 0.1992 0.01558m0.5173-1.037c-0.0336-0.06469-0.0673-0.06469-0.119-0.09827-0.1319-0.01558-0.1138 0.1138-0.1138 0.194 0.0336 0.06725 0.0828 0.1629 0.1655 0.1474 0.1319-0.03106 0.0491-0.1629 0.0673-0.2431m0.7138 1.329c-0.0156-0.0647-0.1009-0.0957-0.1836-0.08018l-0.0156 0.1138c0 0.03106 0.0491 0.09829 0.0802 0.09829 0.0879 0.03104 0.1371-0.05171 0.119-0.1319" style="fill:#b81933"/>
  <path d="m63.3 62.57c0.06462 0.03363 0.0957 0.0957 0.0957 0.1914 0 0.08793-0.03363 0.1474-0.1009 0.1759-0.03622 0.01802-0.09311 0.02588-0.1681 0.02588h-0.3802v-0.4216h0.388c0.07241 0 0.1293 0.01032 0.1655 0.02847m-0.8794-0.3v1.567h0.3259v-0.6156h0.3466c0.09827 0 0.1655 0.01802 0.2017 0.05171 0.03363 0.03104 0.0543 0.09829 0.0543 0.1991l0.0026 0.1448c0 0.04655 0.0053 0.09311 0.01558 0.1345 0.0026 0.02066 0.01032 0.04914 0.02066 0.08534h0.3698v-0.04138c-0.03363-0.01802-0.0543-0.04655-0.06205-0.08793-0.0053-0.02588-0.0077-0.07243-0.0077-0.1448v-0.106c0-0.1086-0.01558-0.1914-0.04655-0.2457-0.03106-0.05171-0.08277-0.09311-0.1578-0.1216 0.08793-0.03104 0.1526-0.08277 0.1914-0.1526 0.03879-0.07243 0.05687-0.1474 0.05687-0.2198 0-0.06205-0.01032-0.1164-0.03106-0.1655-0.02066-0.04914-0.04655-0.09311-0.08277-0.1319-0.04138-0.04913-0.09311-0.08277-0.1526-0.1086-0.06205-0.02588-0.1474-0.03879-0.2612-0.04138z"/>
  <path d="m64.62 62.96c0.04655 0.04138 0.06984 0.1009 0.075 0.181h-0.4811c0.01032-0.075 0.03622-0.1345 0.075-0.1784 0.03879-0.04396 0.09311-0.06469 0.1655-0.06469 0.06725 0 0.1216 0.02066 0.1655 0.06205m-0.5716-0.1526c-0.1035 0.1086-0.1552 0.2612-0.1552 0.4604 0 0.2147 0.05946 0.3698 0.1733 0.463 0.1164 0.0957 0.2483 0.1448 0.3983 0.1448 0.1836 0 0.3259-0.05687 0.4267-0.1707 0.06462-0.06984 0.1034-0.1397 0.1112-0.2095h-0.3181c-0.01539 0.03363-0.03622 0.06203-0.05687 0.08018-0.04138 0.03622-0.09052 0.0543-0.1552 0.0543-0.05951 0-0.1112-0.01558-0.1552-0.04395-0.06984-0.04655-0.106-0.1293-0.1112-0.2431h0.8095c0.0026-0.1009 0-0.1784-0.0077-0.2328-0.01295-0.09052-0.04396-0.1681-0.09052-0.2379-0.05171-0.07759-0.1164-0.1345-0.1966-0.1707-0.08018-0.03622-0.1681-0.0543-0.2664-0.0543-0.1655 0-0.3 0.0543-0.4061 0.1604"/>
  <path d="m66.25 63.09h-0.3181c-0.0053-0.04395-0.02066-0.08277-0.04395-0.119-0.03622-0.04655-0.09052-0.06984-0.1629-0.06984-0.1035 0-0.1759 0.05171-0.2147 0.1526-0.02066 0.0543-0.03106 0.1242-0.03106 0.2147 0 0.08536 0.01032 0.1526 0.03106 0.2043 0.03622 0.09829 0.106 0.1448 0.2095 0.1448 0.07243 0 0.1242-0.01802 0.1552-0.05687 0.02847-0.0388 0.04914-0.08795 0.0543-0.1474h0.3155c-0.0077 0.09052-0.03879 0.1784-0.1009 0.2612-0.09829 0.1319-0.2405 0.1966-0.4319 0.1966-0.1914 0-0.3311-0.0543-0.4216-0.1655-0.08795-0.1112-0.1345-0.2535-0.1345-0.4293 0-0.1991 0.05171-0.3543 0.15-0.4655 0.09829-0.1086 0.2354-0.1655 0.4112-0.1655 0.1474 0 0.269 0.03363 0.3647 0.09829 0.09311 0.06469 0.15 0.181 0.1681 0.3466"/>
  <path d="m66.79 63.53c-0.04914-0.06469-0.075-0.1552-0.075-0.269 0-0.1164 0.02588-0.2069 0.075-0.269 0.04654-0.06205 0.119-0.09311 0.2069-0.09311 0.09311 0 0.1604 0.03104 0.2095 0.09311 0.04913 0.06205 0.07241 0.1526 0.07241 0.269 0 0.1138-0.02331 0.2043-0.07241 0.269-0.04914 0.06203-0.1164 0.09311-0.2095 0.09311-0.08793 0-0.1604-0.03104-0.2069-0.09311m0.6647-0.7035c-0.09829-0.1242-0.2509-0.1862-0.4552-0.1862-0.2043 0-0.3569 0.06203-0.4552 0.1862-0.1009 0.1216-0.15 0.2664-0.15 0.4345 0 0.1681 0.04914 0.3155 0.15 0.4345 0.09827 0.1216 0.2509 0.181 0.4552 0.181 0.2043 0 0.3569-0.05951 0.4552-0.181 0.1009-0.119 0.15-0.2664 0.15-0.4345s-0.04912-0.313-0.15-0.4345"/>
  <path d="m68.47 62.65h0.01558c0.0026 0.0026 0.01032 0.0026 0.02588 0.0026v0.3104c-0.02066-0.0026-0.03879-0.0026-0.0543-0.0053h-0.03622c-0.1242 0-0.2069 0.03879-0.2509 0.119-0.02331 0.04396-0.03622 0.1138-0.03622 0.2069v0.5535h-0.3104v-1.159h0.2948v0.2017c0.04655-0.07759 0.09052-0.1293 0.1267-0.1578 0.05687-0.04913 0.1319-0.07243 0.225-0.07243"/>
  <path d="m69 63.52c-0.04138-0.06469-0.06462-0.15-0.06462-0.256 0-0.1009 0.02324-0.1836 0.06462-0.2509 0.04138-0.06469 0.1086-0.09827 0.1991-0.09827 0.05951 0 0.1112 0.01558 0.1552 0.0543 0.075 0.06205 0.1112 0.1629 0.1112 0.3026 0 0.1009-0.02331 0.1836-0.06984 0.2483-0.04396 0.06469-0.1112 0.0957-0.1991 0.0957-0.08793 0-0.1526-0.03106-0.1966-0.0957m-0.2457-0.7009c-0.09311 0.1138-0.1397 0.269-0.1397 0.4655 0 0.1733 0.04912 0.313 0.1448 0.4216 0.09311 0.1112 0.2095 0.1655 0.3492 0.1655 0.08277 0 0.1526-0.01558 0.2095-0.04655 0.05687-0.03104 0.1086-0.08277 0.15-0.15v0.1604h0.3026v-1.565h-0.3155v0.5535c-0.03363-0.0543-0.07759-0.09829-0.1345-0.1293-0.05687-0.03104-0.119-0.04654-0.1914-0.04654-0.1552 0-0.2793 0.05687-0.375 0.1707"/>
  <path d="m70.06 62.53h0.313v-0.2767h-0.313zm0 1.298h0.313v-1.159h-0.313z"/>
  <path d="m71.33 62.65c0.1216 0 0.2224 0.03104 0.3 0.09311 0.07759 0.06469 0.1164 0.1681 0.1164 0.3129v0.7811h-0.3155v-0.7061c0-0.05953-0.0077-0.106-0.02588-0.1397-0.03104-0.05946-0.08793-0.08793-0.1733-0.08793-0.106 0-0.1784 0.04138-0.2172 0.1293-0.0182 0.04654-0.02847 0.106-0.02847 0.1785v0.6259h-0.3104v-1.156h0.2974v0.1681c0.04138-0.05946 0.08018-0.1009 0.1164-0.1293 0.06205-0.04655 0.1422-0.06984 0.2405-0.06984"/>
  <path d="m72.31 63.44c-0.02066-0.05171-0.03363-0.1112-0.03363-0.181 0-0.07759 0.01032-0.1422 0.03363-0.1966 0.04139-0.09827 0.1164-0.1474 0.225-0.1474 0.08018 0 0.1422 0.02847 0.1888 0.08534 0.04912 0.05687 0.07241 0.1422 0.07241 0.2509 0 0.1164-0.02323 0.2017-0.075 0.2535-0.04913 0.0543-0.1112 0.08018-0.1836 0.08018-0.1086 0-0.1836-0.04654-0.2276-0.1448m-0.2224-0.6155c-0.08793 0.119-0.1319 0.2638-0.1319 0.4345 0 0.1784 0.04654 0.3207 0.1371 0.4242 0.09052 0.106 0.2121 0.1578 0.3647 0.1578 0.09827 0 0.1784-0.02331 0.2405-0.06982 0.03363-0.02588 0.06462-0.06205 0.0957-0.1112v0.075c0 0.1112-0.01295 0.1888-0.03622 0.2354-0.03879 0.07241-0.1138 0.1086-0.225 0.1086-0.08018 0-0.1371-0.01295-0.1681-0.04138-0.02066-0.01558-0.03363-0.04138-0.04395-0.075h-0.3362c0.01032 0.1138 0.06205 0.2017 0.1604 0.2586 0.09311 0.05687 0.2172 0.08795 0.3698 0.08795 0.2509 0 0.419-0.06469 0.5095-0.1966 0.04912-0.075 0.07502-0.1862 0.07502-0.3362v-1.099h-0.3v0.1655c-0.04654-0.08018-0.106-0.1371-0.1836-0.1681-0.04395-0.01558-0.0957-0.02588-0.1552-0.02588-0.1604 0-0.2845 0.05953-0.3724 0.1759"/>
  <path d="m74.01 63.83h0.3336v-1.567h-0.3336z"/>
  <path d="m75.05 62.72c-0.03622 0.02847-0.07243 0.06984-0.1138 0.1293v-0.1681h-0.2974v1.156h0.3078v-0.6285c0-0.06984 0.01032-0.1293 0.03104-0.1759 0.03879-0.08793 0.1112-0.1293 0.2147-0.1293 0.08795 0 0.1448 0.02847 0.1759 0.08793 0.01558 0.03363 0.02588 0.08018 0.02588 0.1422v0.7035h0.3155v-0.7811c0-0.1448-0.03879-0.2483-0.1164-0.3104-0.07759-0.06469-0.1784-0.0957-0.3-0.0957-0.09829 0-0.1784 0.02331-0.2431 0.06984"/>
  <path d="m76.3 63.52c-0.04395-0.06469-0.06469-0.15-0.06469-0.256 0-0.1009 0.02066-0.1836 0.06469-0.2509 0.04138-0.06469 0.1086-0.09827 0.1991-0.09827 0.05951 0 0.1112 0.01558 0.1552 0.0543 0.075 0.06205 0.1112 0.1629 0.1112 0.3026 0 0.1009-0.02331 0.1836-0.06984 0.2483-0.04395 0.06469-0.1112 0.0957-0.1991 0.0957-0.08795 0-0.1526-0.03106-0.1966-0.0957m-0.2431-0.7009c-0.0957 0.1138-0.1422 0.269-0.1422 0.4655 0 0.1733 0.04912 0.313 0.1422 0.4216 0.0957 0.1112 0.2121 0.1655 0.3517 0.1655 0.08277 0 0.1526-0.01558 0.2095-0.04655 0.05687-0.03104 0.106-0.08277 0.1526-0.15v0.1604h0.3v-1.565h-0.3155v0.5535c-0.03363-0.0543-0.07759-0.09829-0.1345-0.1293-0.05687-0.03104-0.119-0.04654-0.1914-0.04654-0.1552 0-0.2819 0.05687-0.3724 0.1707"/>
  <path d="m77.34 62.67h0.3181v0.6983c0 0.0647 0.0077 0.1164 0.02323 0.1474 0.02847 0.05946 0.08536 0.08793 0.1681 0.08793 0.1035 0 0.1784-0.04138 0.2173-0.1242 0.02066-0.04395 0.03104-0.106 0.03104-0.1784v-0.6311h0.3155v1.159h-0.3026v-0.1629c-0.0026 0.0026-0.01032 0.01295-0.02323 0.03104-0.01032 0.01558-0.02588 0.03363-0.03879 0.04655-0.04912 0.04138-0.09829 0.07241-0.1422 0.08534-0.04396 0.01821-0.09829 0.02331-0.1604 0.02331-0.1733 0-0.2923-0.05946-0.3543-0.1836-0.03363-0.06725-0.05171-0.1681-0.05171-0.3z"/>
  <path d="m78.64 63.46h0.3129c0.0077 0.0543 0.02066 0.09052 0.04395 0.1138 0.03622 0.04138 0.1086 0.05951 0.2121 0.05951 0.06205 0 0.1086-0.0077 0.1448-0.02588 0.03622-0.01802 0.0543-0.04396 0.0543-0.08018 0-0.03106-0.01558-0.05946-0.04396-0.07759-0.02847-0.01558-0.1371-0.04655-0.3233-0.09052-0.1345-0.03104-0.2276-0.07241-0.2819-0.1216-0.05687-0.04913-0.08277-0.119-0.08277-0.2095 0-0.106 0.04138-0.1966 0.1267-0.2742 0.08793-0.07759 0.2069-0.1164 0.3621-0.1164 0.15 0 0.2716 0.02847 0.3621 0.08793 0.09311 0.05687 0.1474 0.1578 0.1629 0.2974h-0.3104c-0.0053-0.03879-0.01558-0.06984-0.03622-0.09052-0.03363-0.04138-0.09052-0.06203-0.1733-0.06203-0.06725 0-0.1138 0.01032-0.1422 0.03104-0.02847 0.02066-0.04396 0.04396-0.04396 0.07241 0 0.03363 0.01558 0.05953 0.04655 0.075 0.02847 0.01558 0.1371 0.04396 0.3207 0.08277 0.1242 0.02847 0.2173 0.07243 0.2793 0.1293 0.05946 0.05946 0.09052 0.1319 0.09052 0.2172 0 0.1164-0.04395 0.2095-0.1319 0.2819-0.08536 0.07243-0.2224 0.1086-0.4035 0.1086-0.1862 0-0.3233-0.03879-0.4138-0.1164-0.08795-0.075-0.1319-0.1733-0.1319-0.2923"/>
  <path d="m80 62.9h-0.1681v-0.2147h0.1681v-0.3233h0.3052v0.3233h0.1914v0.2147h-0.1914v0.613c0 0.04913 0.0053 0.07759 0.01802 0.08793 0.01295 0.01295 0.05171 0.01802 0.1138 0.01802h0.03104c0.01032 0 0.01821 0 0.02847-0.0026v0.2276l-0.1448 0.0053c-0.1474 0.0053-0.2483-0.02066-0.3-0.075-0.03622-0.03363-0.05171-0.08793-0.05171-0.1604z"/>
  <path d="m81.34 62.65h0.01558c0.0026 0.0026 0.01295 0.0026 0.02588 0.0026v0.3104c-0.01802-0.0026-0.03622-0.0026-0.05171-0.0053h-0.03622c-0.1242 0-0.2095 0.03879-0.2509 0.119-0.02588 0.04396-0.03622 0.1138-0.03622 0.2069v0.5535h-0.313v-1.159h0.2948v0.2017c0.04912-0.07759 0.09052-0.1293 0.1267-0.1578 0.05687-0.04913 0.1319-0.07243 0.225-0.07243"/>
  <path d="m81.61 64.3v-0.2405h0.03879c0.03106 0.0026 0.05946 0.0026 0.08793-0.0026 0.02588-0.0026 0.04914-0.01295 0.06725-0.02323 0.02066-0.01295 0.03622-0.03879 0.05171-0.07759 0.01558-0.03622 0.02066-0.05946 0.02066-0.06725l-0.4371-1.21h0.344l0.2586 0.8561 0.2457-0.8561h0.3311l-0.4086 1.138c-0.07759 0.2198-0.1397 0.3569-0.1862 0.4112-0.04395 0.05171-0.1371 0.07759-0.2742 0.07759h-0.06462c-0.01821 0-0.04395-0.0026-0.075-0.0053"/>
  <path d="m84.29 63.24h-0.4086l0.2069-0.6156zm-0.6078 0.5923 0.1112-0.3233h0.5897l0.1035 0.3233h0.3621l-0.5664-1.567h-0.3802l-0.5716 1.567z"/>
  <path d="m85.08 63.76c0.08793 0.07759 0.2276 0.1164 0.4138 0.1164 0.181 0 0.3181-0.03622 0.4035-0.1086 0.08793-0.07241 0.1319-0.1681 0.1319-0.2819 0-0.08534-0.03106-0.1604-0.09052-0.2172-0.06203-0.05687-0.1552-0.1009-0.2767-0.1293-0.1862-0.03879-0.2948-0.06725-0.3259-0.08277-0.02847-0.01558-0.04396-0.04138-0.04396-0.075 0-0.02847 0.01295-0.05171 0.04138-0.07241 0.03104-0.02066 0.07759-0.03106 0.1448-0.03106 0.08277 0 0.1422 0.02066 0.1759 0.05953 0.0182 0.02323 0.02847 0.0543 0.03363 0.09311h0.3078c-0.01295-0.1397-0.0647-0.2405-0.1578-0.2974-0.0957-0.05946-0.2147-0.08534-0.3621-0.08534-0.1578 0-0.2767 0.03622-0.3621 0.1138-0.08795 0.07759-0.1293 0.1681-0.1293 0.2742 0 0.09052 0.02588 0.1604 0.08277 0.2095 0.0543 0.04913 0.1474 0.09052 0.2819 0.1216 0.1862 0.04396 0.2948 0.07243 0.3233 0.09311 0.02847 0.01558 0.04396 0.04396 0.04396 0.07759s-0.01802 0.05946-0.0543 0.07759c-0.03363 0.02066-0.08277 0.02847-0.1448 0.02847-0.1035 0-0.1759-0.02066-0.2121-0.06205-0.02331-0.02324-0.03622-0.05946-0.04396-0.1138h-0.3129c0 0.119 0.04396 0.2172 0.1319 0.2923"/>
  <path d="m86.32 63.76c0.08793 0.07759 0.225 0.1164 0.4138 0.1164 0.181 0 0.3181-0.03622 0.4035-0.1086 0.08795-0.07241 0.1319-0.1681 0.1319-0.2819 0-0.08534-0.03104-0.1604-0.09052-0.2172-0.06203-0.05687-0.1552-0.1009-0.2793-0.1293-0.1836-0.03879-0.2923-0.06725-0.3233-0.08277-0.02847-0.01558-0.04395-0.04138-0.04395-0.075 0-0.02847 0.01295-0.05171 0.04138-0.07241 0.02847-0.02066 0.07759-0.03106 0.1448-0.03106 0.08277 0 0.1397 0.02066 0.1733 0.05953 0.02066 0.02323 0.03106 0.0543 0.03363 0.09311h0.3104c-0.01295-0.1397-0.06725-0.2405-0.1604-0.2974-0.09311-0.05946-0.2121-0.08534-0.3621-0.08534-0.1552 0-0.2767 0.03622-0.3621 0.1138-0.08534 0.07759-0.1267 0.1681-0.1267 0.2742 0 0.09052 0.02588 0.1604 0.08018 0.2095 0.05687 0.04913 0.15 0.09052 0.2845 0.1216 0.1862 0.04396 0.2948 0.07243 0.3233 0.09311 0.02847 0.01558 0.04395 0.04396 0.04395 0.07759s-0.0182 0.05946-0.0543 0.07759c-0.03622 0.02066-0.08536 0.02847-0.1448 0.02847-0.1035 0-0.1759-0.02066-0.2147-0.06205-0.02066-0.02324-0.03363-0.05946-0.04139-0.1138h-0.3155c0 0.119 0.04654 0.2172 0.1345 0.2923"/>
  <path d="m87.82 63.53c-0.04914-0.06469-0.07241-0.1552-0.07241-0.269 0-0.1164 0.02331-0.2069 0.07241-0.269 0.04914-0.06205 0.119-0.09311 0.2095-0.09311 0.09052 0 0.1604 0.03104 0.2095 0.09311 0.04655 0.06205 0.07241 0.1526 0.07241 0.269 0 0.1138-0.02588 0.2043-0.07241 0.269-0.04914 0.06203-0.119 0.09311-0.2095 0.09311-0.09052 0-0.1604-0.03104-0.2095-0.09311m0.6673-0.7035c-0.1009-0.1242-0.2535-0.1862-0.4578-0.1862-0.2017 0-0.3543 0.06203-0.4552 0.1862-0.1009 0.1216-0.15 0.2664-0.15 0.4345 0 0.1681 0.04913 0.3155 0.15 0.4345 0.1009 0.1216 0.2535 0.181 0.4552 0.181 0.2043 0 0.3569-0.05951 0.4578-0.181 0.09827-0.119 0.15-0.2664 0.15-0.4345s-0.05171-0.313-0.15-0.4345"/>
  <path d="m89.72 62.74c-0.0957-0.06469-0.2173-0.09829-0.3647-0.09829-0.1759 0-0.3129 0.05687-0.4112 0.1655-0.1009 0.1112-0.15 0.2664-0.15 0.4655 0 0.1759 0.04655 0.3207 0.1345 0.4293 0.09052 0.1112 0.2328 0.1655 0.4216 0.1655 0.1914 0 0.3336-0.06469 0.4319-0.1966 0.05946-0.08277 0.0957-0.1707 0.1035-0.2638h-0.3181c-0.0053 0.06205-0.02331 0.1112-0.0543 0.15-0.03104 0.03879-0.08277 0.05687-0.1552 0.05687-0.1009 0-0.1707-0.04655-0.2095-0.1448-0.01802-0.05171-0.03104-0.119-0.03104-0.2043 0-0.09052 0.01295-0.1604 0.03104-0.2147 0.03879-0.1009 0.1112-0.1526 0.2147-0.1526 0.07243 0 0.1293 0.02331 0.1629 0.06984 0.02323 0.03622 0.03879 0.075 0.04395 0.119h0.3181c-0.01802-0.1655-0.075-0.2819-0.1681-0.3466"/>
  <path d="m90.1 62.53h0.3129v-0.2767h-0.3129zm0 1.298h0.3129v-1.159h-0.3129z"/>
  <path d="m91.28 63.59c-0.05687 0.04138-0.1164 0.05946-0.1836 0.05946-0.04138 0-0.07759-0.01295-0.106-0.03622-0.03104-0.02331-0.04655-0.05946-0.04655-0.1112 0-0.05946 0.02588-0.1009 0.07243-0.1293 0.02847-0.01558 0.075-0.02847 0.1397-0.04138l0.06984-0.01295c0.03622-0.0053 0.06205-0.01295 0.08277-0.02066 0.02066-0.0053 0.04138-0.01558 0.05946-0.02847v0.1138c-0.0026 0.1009-0.03106 0.1707-0.08793 0.2069m-0.4785-0.3749c-0.1112 0.06469-0.1681 0.1681-0.1681 0.3104 0 0.1086 0.03622 0.194 0.1035 0.2535 0.07243 0.05946 0.1604 0.09052 0.2664 0.09052 0.08534 0 0.1604-0.01802 0.2276-0.05687 0.05687-0.03106 0.106-0.06984 0.1474-0.1164 0.0026 0.02588 0.0053 0.04913 0.01032 0.06984 0.0026 0.02066 0.0077 0.04396 0.01802 0.06725h0.3362v-0.04397c-0.0182-0.01032-0.03363-0.02066-0.04395-0.03622-0.01032-0.01558-0.01558-0.04138-0.01802-0.08018-0.0026-0.05171-0.0026-0.09827-0.0026-0.1345v-0.5302c0-0.1397-0.05171-0.2354-0.1526-0.2871-0.1009-0.04913-0.2147-0.075-0.344-0.075-0.1991 0-0.3414 0.05171-0.4242 0.1526-0.04913 0.06725-0.08018 0.15-0.08534 0.2509h0.2974c0.0077-0.04654 0.02323-0.08018 0.04655-0.106 0.02847-0.03622 0.08018-0.0543 0.1552-0.0543 0.06469 0 0.1138 0.01032 0.1474 0.02847 0.03363 0.01802 0.04914 0.05171 0.04914 0.09829 0 0.03879-0.02066 0.06725-0.06469 0.08534-0.02588 0.01032-0.06725 0.02066-0.1242 0.02588l-0.1035 0.01295c-0.1216 0.01558-0.2121 0.04138-0.2742 0.075"/>
  <path d="m92 62.9h-0.1655v-0.2147h0.1655v-0.3233h0.3052v0.3233h0.194v0.2147h-0.194v0.613c0 0.04913 0.0077 0.07759 0.02066 0.08793 0.01032 0.01295 0.04913 0.01802 0.1112 0.01802h0.03104c0.01032 0 0.02066 0 0.03106-0.0026v0.2276l-0.1474 0.0053c-0.1448 0.0053-0.2457-0.02066-0.3-0.075-0.03363-0.03363-0.05171-0.08793-0.05171-0.1604z"/>
  <path d="m92.7 62.53h0.3155v-0.2767h-0.3155zm0 1.298h0.3155v-1.159h-0.3155z"/>
  <path d="m93.64 63.53c-0.05171-0.06469-0.075-0.1552-0.075-0.269 0-0.1164 0.02331-0.2069 0.075-0.269 0.04655-0.06205 0.1164-0.09311 0.2095-0.09311 0.09052 0 0.1578 0.03104 0.2069 0.09311 0.04914 0.06205 0.07241 0.1526 0.07241 0.269 0 0.1138-0.02324 0.2043-0.07241 0.269-0.04912 0.06203-0.1164 0.09311-0.2069 0.09311-0.09311 0-0.1629-0.03104-0.2095-0.09311m0.6647-0.7035c-0.09829-0.1242-0.2509-0.1862-0.4552-0.1862-0.2043 0-0.3569 0.06203-0.4552 0.1862-0.1009 0.1216-0.15 0.2664-0.15 0.4345 0 0.1681 0.04913 0.3155 0.15 0.4345 0.09827 0.1216 0.2509 0.181 0.4552 0.181 0.2043 0 0.3569-0.05951 0.4552-0.181 0.1009-0.119 0.15-0.2664 0.15-0.4345s-0.04913-0.313-0.15-0.4345"/>
  <path d="m95.33 62.65c0.1216 0 0.2224 0.03104 0.3 0.09311 0.07759 0.06469 0.1164 0.1681 0.1164 0.3129v0.7811h-0.3155v-0.7061c0-0.05953-0.01032-0.106-0.02588-0.1397-0.03106-0.05946-0.08795-0.08793-0.1733-0.08793-0.106 0-0.1784 0.04138-0.2173 0.1293-0.02066 0.04654-0.03106 0.106-0.03106 0.1785v0.6259h-0.3078v-1.156h0.2974v0.1681c0.04138-0.05946 0.07759-0.1009 0.1138-0.1293 0.06462-0.04655 0.1448-0.06984 0.2431-0.06984"/>
  <path d="m96.98 63.53c-0.04913-0.06469-0.07243-0.1552-0.07243-0.269 0-0.1164 0.02331-0.2069 0.07243-0.269 0.04912-0.06205 0.119-0.09311 0.2095-0.09311 0.09052 0 0.1604 0.03104 0.2095 0.09311 0.04655 0.06205 0.07243 0.1526 0.07243 0.269 0 0.1138-0.02588 0.2043-0.07243 0.269-0.04912 0.06203-0.119 0.09311-0.2095 0.09311-0.09052 0-0.1604-0.03104-0.2095-0.09311m0.6647-0.7035c-0.09829-0.1242-0.2509-0.1862-0.4552-0.1862-0.2043 0-0.3543 0.06203-0.4552 0.1862-0.1009 0.1216-0.15 0.2664-0.15 0.4345 0 0.1681 0.04914 0.3155 0.15 0.4345 0.1009 0.1216 0.2509 0.181 0.4552 0.181 0.2043 0 0.3569-0.05951 0.4552-0.181 0.1009-0.119 0.15-0.2664 0.15-0.4345s-0.04914-0.313-0.15-0.4345"/>
  <path d="m98.45 62.25h0.0543c0.01558 0.0026 0.03622 0.0053 0.0647 0.0077v0.2457c-0.01802-0.0026-0.04655-0.0053-0.08793-0.0053s-0.06725 0.0077-0.08277 0.02588c-0.0182 0.01802-0.02588 0.04138-0.02588 0.06203v0.09829h0.2043v0.2147h-0.2043v0.9337h-0.3078v-0.9337h-0.1733v-0.2147h0.1707v-0.075c0-0.1242 0.02066-0.2095 0.0647-0.256 0.04395-0.06725 0.1526-0.1035 0.3233-0.1035"/>
  <path d="m99.28 63.24h0.3155v0.03622c0.0053 0.1216 0.01802 0.2069 0.04138 0.256 0.02588 0.04913 0.07759 0.075 0.1552 0.075 0.08018 0 0.1319-0.02847 0.1578-0.08277 0.01558-0.03104 0.02331-0.08534 0.02331-0.1604v-1.097h0.3362v1.091c0 0.1319-0.0259 0.2379-0.0724 0.3155-0.0802 0.1319-0.2224 0.1992-0.4319 0.1992-0.2069 0-0.3466-0.0543-0.419-0.1604-0.06984-0.106-0.106-0.2535-0.106-0.4371z"/>
  <path d="m101.2 63.59c-0.0569 0.04138-0.119 0.05946-0.1836 0.05946-0.044 0-0.0802-0.01295-0.1086-0.03622-0.0285-0.02331-0.0439-0.05946-0.0439-0.1112 0-0.05946 0.0233-0.1009 0.0724-0.1293 0.0285-0.01558 0.0724-0.02847 0.1397-0.04138l0.0698-0.01295c0.0336-0.0053 0.062-0.01295 0.0802-0.02066 0.0207-0.0053 0.0414-0.01558 0.0595-0.02847v0.1138c0 0.1009-0.031 0.1707-0.0853 0.2069m-0.4785-0.3749c-0.1112 0.06469-0.1681 0.1681-0.1681 0.3104 0 0.1086 0.0336 0.194 0.1034 0.2535 0.0698 0.05946 0.1604 0.09052 0.2664 0.09052 0.0853 0 0.1604-0.01802 0.225-0.05687 0.0569-0.03106 0.106-0.06984 0.15-0.1164 3e-3 0.02588 5e-3 0.04913 8e-3 0.06984 5e-3 0.02066 0.0103 0.04396 0.0207 0.06725h0.3362v-0.04397c-0.0207-0.01032-0.0362-0.02066-0.0465-0.03622-0.0103-0.01558-0.0156-0.04138-0.018-0.08018v-0.1345-0.5302c0-0.1397-0.0517-0.2354-0.1526-0.2871-0.1009-0.04913-0.2173-0.075-0.3466-0.075-0.1991 0-0.3388 0.05171-0.4216 0.1526-0.0517 0.06725-0.0802 0.15-0.0853 0.2509h0.2974c8e-3 -0.04654 0.0207-0.08018 0.0439-0.106 0.0311-0.03622 0.0828-0.0543 0.1552-0.0543 0.0646 0 0.1138 0.01032 0.1474 0.02847 0.0336 0.01802 0.0517 0.05171 0.0517 0.09829 0 0.03879-0.0207 0.06725-0.0672 0.08534-0.0233 0.01032-0.0647 0.02066-0.1216 0.02588l-0.106 0.01295c-0.1216 0.01558-0.2095 0.04138-0.2716 0.075"/>
  <path d="m102.6 63.51c-0.0439 0.06469-0.1112 0.0957-0.1966 0.0957-0.0595 0-0.1112-0.01558-0.1552-0.04655-0.0724-0.0543-0.1086-0.15-0.1086-0.2845 0-0.08534 0.0103-0.1552 0.031-0.2095 0.0414-0.106 0.119-0.1578 0.2328-0.1578 0.0931 0 0.1604 0.03622 0.2017 0.1034 0.0414 0.06984 0.062 0.1474 0.062 0.2379 0 0.1086-0.0207 0.194-0.0673 0.2612m-0.3543-0.7888c-0.0362 0.03104-0.0724 0.06984-0.106 0.119v-0.1707h-0.2973v1.614h0.3078v-0.6052c0.0336 0.05171 0.0647 0.08793 0.0983 0.1138 0.0646 0.04655 0.1422 0.06725 0.2354 0.06725 0.15 0 0.269-0.05171 0.3647-0.1604 0.0931-0.106 0.1397-0.2612 0.1397-0.4655 0-0.194-0.0465-0.3388-0.1448-0.4397-0.0957-0.1009-0.2121-0.15-0.3517-0.15-0.0957 0-0.1759 0.02588-0.2457 0.07759"/>
  <path d="m103.8 63.59c-0.0569 0.04138-0.119 0.05946-0.1862 0.05946-0.0414 0-0.0776-0.01295-0.106-0.03622-0.0285-0.02331-0.044-0.05946-0.044-0.1112 0-0.05946 0.0233-0.1009 0.0724-0.1293 0.0259-0.01558 0.0724-0.02847 0.1397-0.04138l0.0698-0.01295c0.0336-0.0053 0.062-0.01295 0.0802-0.02066 0.0207-0.0053 0.0414-0.01558 0.0594-0.02847v0.1138c-3e-3 0.1009-0.031 0.1707-0.0853 0.2069m-0.4785-0.3749c-0.1138 0.06469-0.1707 0.1681-0.1707 0.3104 0 0.1086 0.0362 0.194 0.106 0.2535 0.0698 0.05946 0.1578 0.09052 0.2664 0.09052 0.0828 0 0.1578-0.01802 0.225-0.05687 0.0569-0.03106 0.106-0.06984 0.15-0.1164 0 0.02588 5e-3 0.04913 8e-3 0.06984 3e-3 0.02066 0.0103 0.04396 0.0182 0.06725h0.3388v-0.04397c-0.0207-0.01032-0.0362-0.02066-0.0465-0.03622-0.0103-0.01558-0.0156-0.04138-0.018-0.08018 0-0.05171-3e-3 -0.09827-3e-3 -0.1345v-0.5302c0-0.1397-0.0491-0.2354-0.15-0.2871-0.1009-0.04913-0.2172-0.075-0.3466-0.075-0.1991 0-0.3414 0.05171-0.4216 0.1526-0.0517 0.06725-0.0828 0.15-0.0879 0.2509h0.3c5e-3 -0.04654 0.0207-0.08018 0.0439-0.106 0.0285-0.03622 0.0828-0.0543 0.1552-0.0543 0.0647 0 0.1138 0.01032 0.1474 0.02847 0.0336 0.01802 0.0517 0.05171 0.0517 0.09829 0 0.03879-0.0233 0.06725-0.0673 0.08534-0.0259 0.01032-0.0647 0.02066-0.1216 0.02588l-0.106 0.01295c-0.1216 0.01558-0.2121 0.04138-0.2716 0.075"/>
  <path d="m104.9 62.72c-0.0362 0.02847-0.075 0.06984-0.1138 0.1293v-0.1681h-0.3v1.156h0.3104v-0.6285c0-0.06984 0.0103-0.1293 0.0285-0.1759 0.0414-0.08793 0.1112-0.1293 0.2173-0.1293 0.0853 0 0.1448 0.02847 0.1733 0.08793 0.018 0.03363 0.0259 0.08018 0.0259 0.1422v0.7035h0.3181v-0.7811c0-0.1448-0.0388-0.2483-0.1164-0.3104-0.0776-0.06469-0.1784-0.0957-0.3026-0.0957-0.0957 0-0.1784 0.02331-0.2405 0.06984"/>
 </g>
</svg>
